<?xml version="1.0" encoding="UTF-8"?>
<svg id="Layer_1" data-name="Layer 1" xmlns="http://www.w3.org/2000/svg" viewBox="0 0 250 100">
  <defs>
    <style>
      .cls-1 {
        fill: #fff;
      }
    </style>
  </defs>
  <path class="cls-1" d="M133.65,66.27c-5.32,3.07-13.59,7.13-18.43,3.03-3.63-3.08-5.43-8.21-4.42-12.82,2.15-1.69,4.66-2.64,7.34-3.23l.02,4.89c0,2.54.75,4.99,1.98,7.2.58,1.05,1.66,1.75,2.77,2.17,1.77.67,3.71.33,4.96-1.22,1.68-2.07,3.15-4.48,3.9-7.15l6.19-21.87c.12-.41.13-1.26-.11-1.52-.92-1.01-5.99-1.41-8.69,1.07-1.9,1.75-2.38,4.51-1.99,7.1.3,2.01,1.28,3.53,2.3,5.81-2.22.51-4.33.7-6.76.73-2.24-4.34-2.82-9.1.08-12.95,1.96-2.05,4.53-3.16,7.41-3.43,5.42-.52,10.57-.66,16.35-.23l-4.6,16.71,6.42.02,3.63-12.84c.42-1.49,1.94-3.62,3.49-3.87,2.56-.42,5.06-.18,7.76-.18-2.89,2.68-4.55,7.89-5.58,11.85l-4.47,17.08c-.48,1.83-.34,3.29,1.42,4.78-3.11,2.41-6.56,2.92-10.34,2.8-.46-1.05-.63-2.31-.33-3.44l3.59-13.43-6.43-.02-1.68,5.71c-.94,3.18-2.93,5.62-5.77,7.25Z"/>
  <polygon class="cls-1" points="23.32 51.74 35.21 69.56 25.81 69.62 15.31 53.78 15.24 69.59 7.1 69.6 7.09 33.74 15.22 33.73 15.3 50.56 27.48 33.72 36.58 33.76 23.32 51.74"/>
  <path class="cls-1" d="M66.4,68.3c-3.17,1.99-7.29,2.41-10.62.32-3.12-1.95-4.36-5.56-3.53-9.15,1.34-5.84,8.01-7.56,14.18-6.04.03-2.07-1.48-3.58-3.68-3.85-2.65-.33-5.16.03-8.02.68l-.02-7.2c5.18-.95,12.46-1.35,16.27,2.03,1.96,1.74,2.95,4.52,2.96,7.17l.07,17.3-7.18.04-.42-1.31ZM66.32,63.82v-5.1c-1.77-.27-3.24-.42-4.81-.13s-2.51,1.63-2.46,3.03c.04,1.32.96,2.52,2.47,2.81,1.61.31,3.27-.04,4.81-.6Z"/>
  <path class="cls-1" d="M207.06,48.91c-.14-1.16-4.8.68-5.77,3.79l-2.66,8.51c-.65,2.07-.81,4.25-.93,6.47-1.99,1.45-4.81,2.77-7.38,2.68-1.22-.04-1.63-2.27-1.31-3.33l4.82-15.84c.43-1.42.27-2.53-.78-3.94,2.89-2.01,6.14-3.06,9.69-3.45.59.88.43,2.04.2,3.48,3.25-2.42,10.02-5.39,12.52-3.08.54.5.68,1.68.64,2.62l-4.8,17.21c.01.5-.02,1.6.32,1.83l1.62,1.08c-2.31,2.08-8.93,4.33-10.4,3.15-.35-.28-.81-1.28-.69-1.74l1.13-4.33,3.92-13.92-.14-1.17Z"/>
  <path class="cls-1" d="M87.85,49.77v19.81s-7.67.04-7.67.04v-19.82s-3.25-.02-3.25-.02l-.03-6.58,3.2-.03c.05-2.07.2-4.31.96-6.31,1.98-5.21,7.77-6.36,13.16-5.43l-.04,6.65c-2-.2-3.86-.47-5.27.75-1.12.96-1.13,2.72-1.05,4.34l5.05.02.02,6.55-5.07.05Z"/>
  <path class="cls-1" d="M242.7,55.4c1.4,2.82-4.53,10.85-7.41,14.23l-21.43-.08c1.5-3.02,3.39-5.12,5.41-7.42l7.06-8.05c.93-1.06,1.6-2.03,2.36-3.51h-8.55c-.49.82-.86,1.5-2.11,1.52l2-5.56c.48-1.34,1.84-2.33,3.23-2.63l12.98.02c.23.04.97.26.9.48l-.35,1.01-12.75,17.48,12.76.04c1.05,0,3.76-2.8,2.37-5.08-.62-1.02-1.87-1.3-3.45-.94-.03-.83.38-2.38,1.25-2.98,1.82-1.25,4.73-.53,5.73,1.49Z"/>
  <path class="cls-1" d="M110.56,70.46c-6.71.64-11.71-3.46-11.76-9.69l-.08-10.99-3.12-.05v-6.53s3.14-.08,3.14-.08v-7.15s7.5-.03,7.5-.03v7.18s5.69.07,5.69.07l.03,6.56h-5.7s0,8.78,0,8.78c0,4.41,1.43,8.4,4.31,11.92Z"/>
  <path class="cls-1" d="M168.86,65.62c2.06,0,3.52-.91,5.78-1.56-2.03,4.61-6.93,6.77-11.8,6.58-3.68-.14-6.42-2.58-6.53-6.42-.14-4.81,1.5-9.59,4.44-13.42,3.29-4.28,8.12-6.5,13.49-6.9,1.33-.1,2.63.26,3.43,1.08,2.21,2.27.76,6.04-2.4,8.3-2.95,2.12-6.21,3.2-9.75,4.11-.52,1.57-.86,3.28-.69,4.88.22,2.06,1.78,3.34,4.03,3.34ZM169.47,53.99c.81-1.92,1.74-3.64,2.08-5.62.14-.82-.69-1.49-1.44-1.13-1.74.82-3.05,4.82-4.1,7.59l3.46-.83Z"/>
  <path class="cls-1" d="M51.69,50.63c-2.87.61-6.14,2.26-6.53,5.39-.57,4.5-.11,8.89-.24,13.57h-7.76s0-26.33,0-26.33l7.67-.03v4.79c1.57-2.58,3.86-4.42,6.9-4.78l-.04,7.4Z"/>
  <path class="cls-1" d="M187.12,67.01c-3.64,2.4-11.16,5.43-11.34,1.52-.05-1.18.23-2.46.6-3.62l4.49-14c.4-1.26.18-2.44-.71-3.73,2.87-2.05,6.2-3.08,9.85-3.37.39,1.2.25,2.28,0,3.49l-4.9,16.42c-.03.49-.09,1.6.17,1.93.3.38.87.69,1.83,1.36Z"/>
  <path class="cls-1" d="M192.18,38.11c-1.88,1.92-7.74,4.15-7.38,1.44.2-1.52.49-3.58,1.66-4.69,1.86-1.76,4.62-2.14,7.23-2-.05,1.76-.28,4-1.51,5.25Z"/>
</svg>