<?xml version="1.0" encoding="UTF-8"?>
<svg id="Layer_1" data-name="Layer 1" xmlns="http://www.w3.org/2000/svg" viewBox="0 0 250 100">
  <defs>
    <style>
      .cls-1 {
        fill: #fff;
      }
    </style>
  </defs>
  <path class="cls-1" d="M61.5,29.34l-.05,46.82c0,2.05-1.66,3.55-3.58,3.56l-6.72.03c-2.63,0-4.8-1.3-6.1-3.6l-21.46-37.78-.07,37.74c-.1,2.06-1.52,3.45-3.52,3.61l-4.77-.02c-1.98-.01-3.48-1.67-3.48-3.75V23.9c.01-2.12,1.64-3.63,3.64-3.63l7.78-.02c2.4.14,4.39,1.24,5.57,3.36l21.03,37.28.08-36.79c0-2.13,1.54-3.57,3.68-3.7h91.85c1.37.01,2.26,1.12,2.27,2.27l.03,4.3c-.07,1.3-.91,2.2-2.31,2.36H61.5Z"/>
  <g>
    <path class="cls-1" d="M98.42,65.34h6.79c.67,0,1.22.28,1.52.67,1.38,1.81-1,5.93-2.99,8.07-4.89,5.26-13.19,7.25-20.24,6.16-6.04-.93-11.22-4.36-14.42-9.57-4.19-6.82-4.77-15.35-1.61-22.69,4.53-10.5,15.77-14.59,26.52-11.63,9.85,2.72,15.16,12.32,14.56,22.16-.1,1.71-1.48,2.9-3.19,2.9h-28.25c.33,5.91,5.3,10,11.09,9.54,3.19-.25,5.96-1.54,7.7-4.3.61-.73,1.4-1.31,2.52-1.32ZM97.15,52.89c-.43-4.14-3.24-7.13-6.94-8.15-2.06-.53-4.09-.53-6.15.01-3.79,1-6.5,4.19-6.87,8.18l19.96-.04Z"/>
    <path class="cls-1" d="M140.28,78.74c-8.31,3.15-19.17,2.3-25.74-3.63-2.15-1.94-3.56-4.41-3.64-7.32-.04-1.36.78-2.46,2.17-2.46h6c3.05.01,2.4,3.77,6.73,5.27,3.06,1.06,6.48,1.13,9.46-.1,2.03-.84,3.21-3.09,2.14-5.02-.58-1.05-1.87-1.54-3-1.83l-11.83-3.09c-5.86-1.53-10.85-5.55-10.71-11.91.14-6.16,4.32-10.42,10.09-12.1,7.7-2.24,17.98-1.35,23.55,4.64,1.54,1.65,2.56,3.7,2.56,5.91,0,1.17-.7,2.1-1.85,2.1l-6.14-.02c-.93,0-1.69-.47-2.1-1.29-.85-1.69-2.29-2.91-4.15-3.43-3.49-.97-8.92-.76-10.16,2.18-.43,1.03-.43,2.21.27,3.1s1.77,1.29,2.85,1.57l13.12,3.49c3.24.86,6.05,2.75,7.8,5.66,2.57,4.28,2.13,9.95-1,13.82-1.69,2.09-3.83,3.46-6.42,4.45Z"/>
  </g>
  <g>
    <g>
      <path class="cls-1" d="M176.01,73.28v4.05c0,1.26-.95,2.37-2.24,2.36l-6.68-.1c-6.89-.56-12.1-5.96-12.13-12.92l-.09-21.52-2.72-.04c-1.24-.02-2.18-1-2.18-2.24v-3.53c-.02-1.33.95-2.31,2.27-2.35l2.64-.07.06-13.42c0-1.83,1.55-3.08,3.24-3.09h4.81c1.64,0,3.3,1.21,3.31,3.01l.08,13.53,7.59.05c1.34,0,2.35,1.11,2.32,2.42v3.35c-.02,1.41-1.07,2.36-2.48,2.37l-7.51.03.06,19.96c0,1.69.71,3.33,1.94,4.37,1.34,1.13,3.08,1.38,4.79,1.33,1.49-.04,2.91.81,2.91,2.46Z"/>
      <path class="cls-1" d="M187.86,79.73h-5.22c-1.7.01-3.27-1.31-3.27-3.2V23.53c0-1.81,1.6-3.12,3.18-3.12l5.1-.02c1.77,0,3.41,1.31,3.4,3.31v52.84c-.01,1.82-1.53,3.18-3.19,3.18Z"/>
    </g>
    <g>
      <path class="cls-1" d="M228.04,65.34h6.79c1.25-.01,2.05.99,1.9,2.25-.18,1.53-.82,2.9-1.66,4.21-4.44,6.94-13.82,9.61-21.77,8.47-6.4-.92-11.81-4.62-15.02-10.24-3.94-6.91-4.32-15.45-.94-22.66,2.87-6.13,8.34-10.36,14.97-11.53,9.18-1.62,18.59,1.48,23.13,9.93,2.11,3.93,3.06,8.29,2.77,12.76-.1,1.61-1.36,2.87-3.03,2.87l-28.48.03c.28,5.81,5.22,10.02,11.11,9.52,3.27-.28,6.17-1.66,7.83-4.57.6-.59,1.4-1.03,2.39-1.03ZM226.73,52.89c-.47-4.12-3.21-7.13-6.91-8.14-2.06-.54-4.09-.54-6.15,0-3.8,1-6.54,4.19-6.9,8.18l19.96-.03Z"/>
      <path class="cls-1" d="M199.84,29.34c-1.21,0-1.94-.74-1.94-1.73v-2.65c0-1.07.71-1.98,1.88-2.09l34.39-3.39c1.7-.17,2.84,1.16,2.84,2.69l.03,4.65c0,1.37-.96,2.5-2.44,2.5h-34.75Z"/>
    </g>
  </g>
</svg>