<?xml version="1.0" encoding="UTF-8"?>
<svg id="Layer_1" data-name="Layer 1" xmlns="http://www.w3.org/2000/svg" xmlns:xlink="http://www.w3.org/1999/xlink" viewBox="0 0 250 100">
  <defs>
    <style>
      .cls-1 {
        fill: none;
      }

      .cls-2 {
        fill: url(#linear-gradient);
      }

      .cls-3 {
        fill: #fff;
      }

      .cls-4 {
        clip-path: url(#clippath);
      }
    </style>
    <clipPath id="clippath">
      <path class="cls-1" d="M9.49,55.33c-1.42-.51-2.84-.87-4.25-1.12.43,2.28,1.21,4.54,2.4,6.69,3.46,6.27,9.5,10.2,16.07,11.22-.24-6.86-5.8-13.77-14.22-16.79ZM10.29,48.37c11.11-.97,19.66-9.63,20.7-20.16-4.84-.86-10-.13-14.63,2.44-6.74,3.72-10.79,10.43-11.41,17.56,1.73.25,3.52.31,5.35.15ZM27.14,55.27c-.28,6.18,1.67,11.94,5.13,16.52,1.92-.46,3.8-1.17,5.61-2.17,10.76-5.95,14.66-19.49,8.71-30.25-1.28-2.32-2.92-4.32-4.8-5.97-8.29,3.87-14.21,12.1-14.66,21.87Z"/>
    </clipPath>
    <linearGradient id="linear-gradient" x1="-1967.56" y1="672.03" x2="-1967.43" y2="672.03" gradientTransform="translate(678439.27 231771.6) scale(344.81 -344.81)" gradientUnits="userSpaceOnUse">
      <stop offset="0" stop-color="#cd9f28"/>
      <stop offset="1" stop-color="#ecd80b"/>
    </linearGradient>
  </defs>
  <g id="g10">
    <g id="g12">
      <g id="g14">
        <g class="cls-4">
          <g id="g16">
            <path id="path28" class="cls-2" d="M9.49,55.33c-1.42-.51-2.84-.87-4.25-1.12.43,2.28,1.21,4.54,2.4,6.69,3.46,6.27,9.5,10.2,16.07,11.22-.24-6.86-5.8-13.77-14.22-16.79ZM10.29,48.37c11.11-.97,19.66-9.63,20.7-20.16-4.84-.86-10-.13-14.63,2.44-6.74,3.72-10.79,10.43-11.41,17.56,1.73.25,3.52.31,5.35.15ZM27.14,55.27c-.28,6.18,1.67,11.94,5.13,16.52,1.92-.46,3.8-1.17,5.61-2.17,10.76-5.95,14.66-19.49,8.71-30.25-1.28-2.32-2.92-4.32-4.8-5.97-8.29,3.87-14.21,12.1-14.66,21.87"/>
          </g>
        </g>
      </g>
      <path id="path30" class="cls-3" d="M122.82,68.19h6.42V31.11h-6.42v37.09"/>
      <path id="path32" class="cls-3" d="M148.6,41.27c-3.19,0-6.25,1.21-8.22,4.42v-3.86h-5.78v26.36h6.18v-13.96c0-1.09.1-2.14.29-2.9.71-2.84,2.74-4.49,5.72-4.49s4.86,1.54,5.43,4.63c.14.74.2,1.79.2,2.77v13.97h6.18v-15.6c0-1.75-.18-3.33-.58-4.68-1.34-4.48-4.92-6.64-9.41-6.64"/>
      <path id="path34" class="cls-3" d="M179.24,62.15c-.67.16-1.79.22-2.51.22h-7.1v-10.46h7.64c.69,0,1.47.07,2.02.19,3,.67,4.16,3.04,4.16,5.03,0,2.63-1.69,4.43-4.2,5.02h0ZM169.63,36.93h5.7c1.3,0,2.68.18,3.57.59,1.55.71,2.38,2.04,2.38,4.05s-.89,3.39-2.46,4.09c-.79.35-1.94.54-3.27.54h-5.91v-9.27ZM184.06,48.37c2.51-1.93,3.56-4.14,3.56-7.29,0-4.72-2.93-8.27-7.39-9.47-1.16-.31-3.04-.5-5.23-.5h-11.72v37.08h13.13c2.56,0,4.27-.24,5.95-.84,4.4-1.55,7.43-4.97,7.43-9.98,0-4.19-1.99-7.17-5.74-9"/>
      <path id="path36" class="cls-3" d="M238.43,41.83l-6.6,18.83-6.7-18.83h-6.7l10.47,26.36h5.7l10.45-26.36h-6.63"/>
      <path id="path38" class="cls-3" d="M198.22,52.94c.44-3.79,3.52-6.29,7.26-6.29,3.93,0,6.91,2.6,7.35,6.29h-14.61ZM205.42,41.27c-7.5,0-13.33,6.04-13.33,13.93,0,7.28,5.74,13.56,13.6,13.56,5.74,0,10.18-3.3,12.45-8.65h-6.28c-1.42,2.12-3.31,3.27-6.06,3.27-4.1,0-6.77-2.41-7.59-6.12h20.57c.15-.88.2-1.61.19-2.5-.07-7.08-5.5-13.48-13.54-13.48"/>
      <path id="path40" class="cls-3" d="M106.54,62.37h-7.64v-10.66c.97-.04,1.92-.06,2.84-.05,6.95.09,10.99,2.11,10.99,5.71,0,3.24-2.89,5-6.19,5h0ZM98.9,36.93h5.45c1.24,0,2.29.14,3,.37,2.07.67,3.2,2.23,3.2,4.75,0,2.33-1.17,3.86-3.03,4.56-1.77-.3-3.75-.47-5.96-.47-.83,0-1.74.01-2.66.04v-9.25ZM64.52,59.77l8.24-21.33,4.79,12.79c-4.96,2.27-9.38,5.19-13.03,8.54ZM113.28,48.42c2.67-1.96,3.62-4.88,3.62-7.35,0-4.72-2.93-8.27-7.39-9.48-1.16-.31-3.04-.49-5.23-.49h-11.72v15.65c-3.27.5-6.44,1.27-9.46,2.28l-7.32-17.93h-5.89l-15.13,37.09h6.18c5.34-5.64,11.71-9.69,18.34-12.38l4.64,12.38h7l-5.86-14.36c2.51-.71,5.02-1.25,7.5-1.61v15.97h3.19s0,0,0,0h11.19c7.91,0,12.15-4.64,12.15-10.82,0-3.75-1.86-6.94-5.8-8.95"/>
    </g>
  </g>
</svg>