<?xml version="1.0" encoding="UTF-8"?>
<svg id="Layer_1" data-name="Layer 1" xmlns="http://www.w3.org/2000/svg" viewBox="0 0 250 100">
  <defs>
    <style>
      .cls-1 {
        fill: #fff;
      }
    </style>
  </defs>
  <path class="cls-1" d="M88.13,60.94h-13.57s-2.56,7.32-2.56,7.32h-9.3s13.23-36.43,13.23-36.43h11.19s13.56,36.42,13.56,36.42h-10.17s-2.38-7.31-2.38-7.31ZM85.96,54.06l-4.48-14.53-4.65,14.55,9.14-.02Z"/>
  <polygon class="cls-1" points="204.8 53.46 189.52 53.46 189.52 61.08 206.79 61.08 206.79 68.25 179.66 68.24 179.66 31.83 206.26 31.83 206.26 38.89 189.52 38.89 189.51 46.29 204.79 46.29 204.8 53.46"/>
  <path class="cls-1" d="M17.63,68.85c-5.31.13-9.53.03-14.77-1.74l1.1-8.14c3.06,1.72,6.25,2.55,9.65,2.67,2.46.09,6.2-.07,7.37-2.1.77-1.33.27-2.93-.92-3.85-.86-.66-1.85-1.15-2.91-1.48l-5.33-1.67c-1.71-.54-3.28-1.25-4.76-2.24-1.96-1.3-3.31-3.2-3.82-5.52-.42-1.95-.39-3.92.12-5.84,1.66-6.25,8.76-7.79,14.67-7.83,3.83.03,7.54.58,11.28,1.64l-.84,7.8c-3.76-1.61-7.73-2.41-11.8-2.04-2.09.22-3.89,1.06-3.97,3.11s1.96,3.05,3.9,3.66l5.31,1.68c1.74.55,3.35,1.27,4.88,2.24,3.92,2.49,5.04,6.8,4.01,11.23-1.05,4.57-5.1,6.95-9.53,7.83-1.21.24-2.41.55-3.65.58Z"/>
  <polygon class="cls-1" points="131.24 68.24 123.49 58.63 115.38 48.68 115.36 68.24 106.12 68.24 106.12 31.83 114.04 31.82 139.04 62.94 139.06 68.24 131.24 68.24"/>
  <polygon class="cls-1" points="246.86 31.84 233.64 54.64 233.64 68.24 224.01 68.24 224.02 54.63 210.62 31.83 221.63 31.82 228.86 46.42 235.89 31.83 246.86 31.84"/>
  <polygon class="cls-1" points="53.86 68.28 44.26 68.3 44.26 39.15 33.79 39.15 33.79 31.83 64.26 31.83 64.26 39.12 53.85 39.12 53.86 68.28"/>
  <polygon class="cls-1" points="173.71 60.85 173.72 68.26 147.97 68.25 147.97 31.83 157.82 31.82 157.82 60.85 173.71 60.85"/>
  <polygon class="cls-1" points="139.06 31.82 139.06 50.17 124.35 31.83 139.06 31.82"/>
  <path class="cls-1" d="M247.15,65.26c0,1.7-1.38,3.08-3.08,3.08s-3.08-1.38-3.08-3.08,1.38-3.08,3.08-3.08,3.08,1.38,3.08,3.08ZM246.46,65.29c0-1.33-1.08-2.41-2.41-2.41s-2.41,1.08-2.41,2.41,1.08,2.41,2.41,2.41,2.41-1.08,2.41-2.41Z"/>
  <path class="cls-1" d="M244.57,66.71l-.53-1.02c-.03-.06-.15-.2-.19-.25-.06-.06-.33.03-.35.11l-.02,1.36h-.54s0-3.34,0-3.34h1.59c.24,0,.62.28.75.48.15.23.2.89-.02,1.02l-.76.46.91,1.4c-.27.11-.73,0-.84-.22ZM244.52,64.92c.2-.02.34-.68.15-.73l-1.1-.28v1.11s.95-.1.95-.1Z"/>
</svg>