<?xml version="1.0" encoding="UTF-8"?>
<svg id="Layer_3" data-name="Layer 3" xmlns="http://www.w3.org/2000/svg" viewBox="0 0 250 100">
  <defs>
    <style>
      .cls-1 {
        fill: #fff;
      }
    </style>
  </defs>
  <g id="CBVzaD">
    <g>
      <path class="cls-1" d="M101.11,47.23c1.46.85,2.38,2.27,2.09,4.07-.32,3.04-2.69,5.42-5.83,5.45l-8.07.07,3.84-18.12,6.8.06c1.73.01,3.22.65,4.07,2.14.83,2.52-.09,4.95-2.9,6.34ZM99.16,45.38c1.25-.7,1.64-2.59.4-3.21-.78-.39-2.49-.33-3.42-.26l-.8,4.02c1.25.06,2.77.04,3.83-.55ZM97.11,53.52c1.77-.53,2.52-2.67,1.6-4.21l-4.03-.44-.92,4.93c1.36,0,2.4.01,3.35-.27Z"/>
      <path class="cls-1" d="M164.4,53.08l2.79,3.7-4.3.04c-.31,0-1.05-.74-1.27-.99-2.51,1.42-5.56,1.8-8.31.79-1.91-.7-2.92-2.5-2.52-4.56s1.99-3.45,4.14-4.39c-1.83-2.01-1.59-4.93.65-6.74,2.11-1.71,5.6-2.17,7.85-.37,1.32,1.06,1.17,3.45.24,4.7s-1.94,1.82-3.54,2.72l2.23,2.57.91-2.6h3.02s-1.89,5.12-1.89,5.12ZM160.66,43.14c0-.75-.99-1.4-1.61-1.15-.9.37-1.56,1.16-1.67,1.9-.09.6.59,1.88,1.16,1.93,1.11-.06,2.11-1.42,2.11-2.67ZM159.76,53.52l-3.16-3.75c-1.72.69-2.66,2.99-1.35,4.16s3.56.73,4.51-.41Z"/>
      <path class="cls-1" d="M184.08,43.17c.83,6.18-2.31,13.54-9.48,13.61l-5.85.06,3.85-18.05,6.51.02c2.57,0,4.63,1.81,4.97,4.36ZM180.24,45.06c.12-1.04-.35-2.56-1.32-3.06-.65-.33-1.77-.31-3.12-.29l-2.55,12.03c5.08.8,6.44-3.65,7-8.68Z"/>
      <path class="cls-1" d="M15.21,55.83c-3.72,2.01-7.9,1.81-11.46-.25l1.91-2.91c2.05.99,3.84,1.77,5.96,1.27,1.53-.36,3.18-1.91,2.21-3.62s-5.83-1.21-6.62-4.33c-.72-2.85.94-5.69,3.54-6.91,3.22-1.52,7.09-1.1,9.76.91l-2.19,2.66c-1.82-1.19-4.11-1.99-6.12-.71-.45.29-1.05,1.36-.92,1.85.55,2.03,5.35,1.62,6.71,4.21s0,6.33-2.78,7.83Z"/>
      <polygon class="cls-1" points="149.4 56.8 145.2 56.82 142.38 49.74 140.64 56.85 137.13 56.83 140.18 42.59 140.63 38.43 144.38 37.4 143.72 42.76 142.55 48.75 146.85 43.43 151.26 43.44 145.84 49.26 149.4 56.8"/>
      <polygon class="cls-1" points="221.62 56.71 217.42 56.86 214.58 49.57 212.93 56.8 209.38 56.81 212.42 42.52 212.91 38.44 216.52 37.37 216.35 40.65 214.82 48.76 219 43.46 223.53 43.42 218.06 49.36 221.62 56.71"/>
      <path class="cls-1" d="M75.37,62.64l-.75-2.53c2.04-.25,3.48-1.36,4.33-2.88l-.6-1.06-1.6-12.58,3.71-.43.85,9.6,4.92-9.31h3.92s-8.57,14.99-8.57,14.99c-1.36,2.38-3.46,3.88-6.21,4.19Z"/>
      <path class="cls-1" d="M120.6,57.31l-1.08-1.51c-1.41,1.62-5.14,2.24-6.31-.13-1.76-3.57-.15-8.79,2.98-11.18,2.64-2.01,6.19-1.42,8.9-.5l-1.84,7.89c-.26,1.13-.14,2.2.44,3.24l-3.09,2.18ZM119.74,51.96l1.32-5.85c-1.19-.28-2.53-.06-3.25,1-1.28,1.88-2.22,4.86-1.23,7,1.16.84,2.87-.88,3.16-2.15Z"/>
      <path class="cls-1" d="M36.88,57.29l-1.18-1.48c-1.46,1.48-4.38,2.09-6.03.33-2.1-2.23-.93-9.48,2.96-11.86,2.61-1.6,6.06-1.32,8.63-.21l-1.73,7.17c-.32,1.34-.31,2.58.16,3.93l-2.8,2.12ZM35.77,52.44l1.39-6.36c-3.66-.92-5.44,4.3-4.56,7.78.77,1.03,2.9-.15,3.18-1.43Z"/>
      <path class="cls-1" d="M51.19,46.43c-1.6-.7-3.46.48-3.77,1.88l-1.91,8.49h-3.51s1.95-9.32,1.95-9.32c.22-1.04.14-2.16.05-3.32l3.28-1.17.43,1.85c1.74-1.44,3.88-2.34,6.04-1.2.77.41,1.09,2.22.9,3.16l-2.06,10.03-3.53-.07,2.13-10.35Z"/>
      <path class="cls-1" d="M72.69,53.21l.97,2.13c-2.07,1.48-4.65,2.24-7.33,1.66-1.53-.33-2.79-1.49-3.09-3.12-.63-3.51.62-7.31,3.53-9.52,2.06-1.57,5.14-1.67,7.27-.24,1.08.73,1.27,2.26,1.09,3.52-.44,3.03-4.56,4.14-8.29,3.75,0,.64.07,1.72.23,2.21.18.55,1.57,1.14,2.16.92l3.47-1.3ZM71.27,47.92c.31-.27.35-1.68,0-1.82-.29-.11-.88-.26-1.22-.24-1.56.09-2.56,1.82-2.36,3.04,1.27.09,2.65-.16,3.58-.98Z"/>
      <path class="cls-1" d="M194.82,53.11l.63,2.34c-2.09,1.42-4.39,2.01-6.81,1.61-1.9-.32-3.31-1.68-3.52-3.68-.32-3.01.58-6.03,2.72-8.3s6-2.76,8.34-.74c1.94,1.67.98,4.82-1.03,6.01-1.84,1.09-3.79,1.14-6.15,1-.25.32-.25,1.77.07,2.26s1.55,1.12,2.11.91l3.64-1.41ZM193.04,48.19c.26-.15.29-.81.27-1.33-.02-.44-.33-.81-.75-.9s-.88-.16-1.1-.05c-1.17.59-1.7,1.7-2.01,3,1.45.05,2.41-.03,3.59-.71Z"/>
      <path class="cls-1" d="M232.7,53.13l.7,2.17c-3.32,2.78-9.38,2.54-10.2-1.11s.5-7.77,3.66-9.99c2.04-1.44,5.06-1.48,7.09-.07,1.01.7,1.26,2.27,1.06,3.48-.5,3.07-4.6,4.25-8.25,3.76-.12.73-.03,1.99.37,2.47.43.51,1.94.88,2.57.6l2.99-1.3ZM231.14,47.97c.32-.28.34-1.67.01-1.86s-1.14-.38-1.51-.27c-1.36.41-2.07,1.69-2.17,3.03,1.2.15,2.76-.11,3.67-.9Z"/>
      <path class="cls-1" d="M26.6,54.48l.09,2.13c-1.38.4-2.96.62-4.48.37-1.25-.21-2.09-1.55-1.84-2.76l1.64-8.06-1.09-.21c-.22-.04-.09-.59-.02-.87l.33-1.27c.09-.33.94-.47,1.36-.6l.87-2.87,3.68-.92-1.02,4h3.16s-1.39,2.49-1.39,2.49l-2.31.34-1.4,6.65c-.08.4-.03,1.21.24,1.45s1.14.18,2.18.11Z"/>
      <path class="cls-1" d="M134.26,53.01l1.32,2.38c-1.82,1.39-3.83,2.07-6.05,1.7-1.79-.29-3.24-1.54-3.44-3.42-.32-3.06.57-6.23,2.69-8.46,2.32-2.44,5.93-3.05,8.63-.66l-2.01,2.29c-.97-.53-1.81-.95-2.63-.78-1.86.37-3.72,5.84-2.39,7.79.82,1.22,2.75.39,3.88-.84Z"/>
      <path class="cls-1" d="M204.4,54.34l2.22-1.22,1.25,2.22c-3.41,2.77-8.59,2.29-9.34-.83-.95-3.99.67-8.58,4.22-10.67,2.28-1.35,4.94-1,6.87.7l-1.89,2.28c-.96-.44-1.7-.79-2.35-.88-2.03-.29-4.41,6.62-2.55,8.27.26.23,1.25.3,1.57.13Z"/>
      <path class="cls-1" d="M108.26,57.13c-.78-.02-1.9-.23-2.35-.56-.5-.36-.93-1.69-.78-2.38l2.74-12.99c.17-.8.14-1.78.1-2.72l3.88-1.12-.61,5.29-2.42,11.49c.89.47,1.34.94,1.37,1.52.08,1.23-.48,1.52-1.94,1.48Z"/>
      <path class="cls-1" d="M61.1,56.9l-3.15.11c-1.34.05-2.11-1.63-1.85-2.88l2.59-12.36.31-3.34,3.7-1.05c.04,1.08.11,2.2-.1,3.17l-2.8,13.48c1.05.69,1.35,1.25,1.3,2.87Z"/>
      <path class="cls-1" d="M240.81,49.53l-1.48,7.29h-3.63s1.97-9.28,1.97-9.28c.2-.96.11-2.14,0-3.27l3.3-1.33.45,1.93c1.31-1.35,2.89-2.07,4.82-1.62l-1.46,3.17c-2.28-.47-3.58,1.15-3.98,3.1Z"/>
    </g>
  </g>
</svg>